Coordinates
version=1
nRows=9
nColumns=24
inDegrees=yes

Units are S.I. units (second, meters, Newtons, ...)
Angles are in degrees.

endheader
time	pelvis_tilt	pelvis_list	pelvis_rotation	pelvis_tx	pelvis_ty	pelvis_tz	hip_flexion_r	hip_adduction_r	hip_rotation_r	knee_angle_r	ankle_angle_r	subtalar_angle_r	mtp_angle_r	hip_flexion_l	hip_adduction_l	hip_rotation_l	knee_angle_l	ankle_angle_l	subtalar_angle_l	mtp_angle_l	lumbar_extension	lumbar_bending	lumbar_rotation
      6.69000000	     -7.75238608	     -6.57367298	      6.54988719	     -0.81447637	     -0.00273878	     -0.25278379	     12.26000895	     10.08936227	      6.44918341	    -13.81167286	      1.46743099	     -4.06162430	     11.16073952	     25.55247664	     -6.39019136	      4.74792957	    -61.62178678	     -8.97081625	     -8.59937160	     19.34033406	      8.30203865	      4.88581894	     -0.92120966
      6.69500000	     -7.80880353	     -6.33373014	      6.39373568	     -0.80942730	     -0.00235419	     -0.25234623	     11.76755142	      9.90874687	      6.64820608	    -13.49545751	      1.67648126	     -4.00390574	     11.10678703	     26.14719824	     -6.06982547	      4.43969673	    -61.05896088	     -8.48733868	     -8.60751262	     19.43619909	      8.28125106	      4.64371139	     -0.53766913
      6.70000000	     -7.83884935	     -6.11745246	      6.16139741	     -0.80437860	     -0.00198931	     -0.25185527	     11.23911475	      9.75896116	      6.88389944	    -13.16059624	      1.88453921	     -3.84125717	     11.09341792	     26.68251261	     -5.82283149	      4.06191667	    -60.43469364	     -8.01735301	     -8.60802504	     19.51804756	      8.22786976	      4.45163792	     -0.06311256
      6.70500000	     -7.85763587	     -5.92493699	      5.95842102	     -0.79933552	     -0.00168282	     -0.25140416	     10.69049489	      9.61885034	      7.05584474	    -12.79140449	      2.08947301	     -3.65249269	     11.13235617	     27.20331246	     -5.59103442	      3.73134420	    -59.76184089	     -7.58853586	     -8.60645923	     19.57866364	      8.17087494	      4.27773714	      0.37226273
      6.71000000	     -7.86769901	     -5.74667170	      5.76484095	     -0.79430979	     -0.00143561	     -0.25096530	     10.12765178	      9.48392415	      7.19186467	    -12.39976080	      2.29395430	     -3.43020672	     11.23456303	     27.70588506	     -5.37486649	      3.42640912	    -59.04020939	     -7.18909100	     -8.58639266	     19.62761626	      8.10399794	      4.11155938	      0.79777362
      6.71500000	     -7.80832154	     -5.59381868	      5.55110342	     -0.78929894	     -0.00118520	     -0.25058822	      9.48544948	      9.36942689	      7.28333300	    -11.98263108	      2.49016440	     -3.11309189	     11.48345194	     28.11634474	     -5.20274107	      3.11302777	    -58.27038156	     -6.80896014	     -8.59051015	     19.60427384	      7.95943830	      4.00564103	      1.24746778
      6.72000000	     -7.84035227	     -5.43567918	      5.40285094	     -0.78427837	     -0.00110819	     -0.25025798	      8.93821508	      9.23225005	      7.35821052	    -11.55516604	      2.68044705	     -2.94080857	     11.67288665	     28.62631183	     -4.98000104	      2.89785796	    -57.45706409	     -6.46698885	     -8.51597099	     19.63681479	      7.92874491	      3.85579467	      1.58854394
      6.72500000	     -7.77389573	     -5.30307705	      5.17416314	     -0.77927506	     -0.00098457	     -0.24989127	      8.28944919	      9.13236269	      7.45936535	    -11.12744184	      2.83832908	     -2.64052437	     12.05638049	     28.99474241	     -4.84659875	      2.60421925	    -56.58556397	     -6.11350242	     -8.46703313	     19.61277779	      7.77941155	      3.76874633	      2.01707306
      6.73000000	     -7.71232921	     -5.16667563	      4.99921305	     -0.77428806	     -0.00091932	     -0.24963227	      7.64290339	      9.01443823	      7.51596313	    -10.67734665	      2.93028290	     -2.45121732	     12.54365485	     29.36235162	     -4.66638671	      2.41214299	    -55.67172983	     -5.81547033	     -8.38173537	     19.52647665	      7.63755793	      3.67469433	      2.44485128
